<svg
  xmlns="http://www.w3.org/2000/svg"
  width="1920"
  height="1080"
  viewBox="0 0 1920 1080"
  role="img"
  aria-labelledby="title desc"
>
  <title id="title">Blueprint Background Affinity Compatible</title>
  <desc id="desc">Muted blueprint-style background with explicitly duplicated alignment marks for design app compatibility.</desc>

  <rect width="1920" height="1080" fill="#777b8f"/>
  <g fill="none" stroke="#afadad" stroke-linecap="round" opacity="0.2">
    <path d="M -160 -80 H -144 M -128 -80 H -112 M -56 -80 H -40 M -24 -80 H -8 M -84 -156 V -140 M -84 -124 V -108 M -84 -52 V -36 M -84 -20 V -4 M 8 -80 H 24 M 40 -80 H 56 M 112 -80 H 128 M 144 -80 H 160 M 84 -156 V -140 M 84 -124 V -108 M 84 -52 V -36 M 84 -20 V -4 M 176 -80 H 192 M 208 -80 H 224 M 280 -80 H 296 M 312 -80 H 328 M 252 -156 V -140 M 252 -124 V -108 M 252 -52 V -36 M 252 -20 V -4 M 344 -80 H 360 M 376 -80 H 392 M 448 -80 H 464 M 480 -80 H 496 M 420 -156 V -140 M 420 -124 V -108 M 420 -52 V -36 M 420 -20 V -4 M 512 -80 H 528 M 544 -80 H 560 M 616 -80 H 632 M 648 -80 H 664 M 588 -156 V -140 M 588 -124 V -108 M 588 -52 V -36 M 588 -20 V -4 M 680 -80 H 696 M 712 -80 H 728 M 784 -80 H 800 M 816 -80 H 832 M 756 -156 V -140 M 756 -124 V -108 M 756 -52 V -36 M 756 -20 V -4 M 848 -80 H 864 M 880 -80 H 896 M 952 -80 H 968 M 984 -80 H 1000 M 924 -156 V -140 M 924 -124 V -108 M 924 -52 V -36 M 924 -20 V -4 M 1016 -80 H 1032 M 1048 -80 H 1064 M 1120 -80 H 1136 M 1152 -80 H 1168 M 1092 -156 V -140 M 1092 -124 V -108 M 1092 -52 V -36 M 1092 -20 V -4 M 1184 -80 H 1200 M 1216 -80 H 1232 M 1288 -80 H 1304 M 1320 -80 H 1336 M 1260 -156 V -140 M 1260 -124 V -108 M 1260 -52 V -36 M 1260 -20 V -4 M 1352 -80 H 1368 M 1384 -80 H 1400 M 1456 -80 H 1472 M 1488 -80 H 1504 M 1428 -156 V -140 M 1428 -124 V -108 M 1428 -52 V -36 M 1428 -20 V -4 M 1520 -80 H 1536 M 1552 -80 H 1568 M 1624 -80 H 1640 M 1656 -80 H 1672 M 1596 -156 V -140 M 1596 -124 V -108 M 1596 -52 V -36 M 1596 -20 V -4 M 1688 -80 H 1704 M 1720 -80 H 1736 M 1792 -80 H 1808 M 1824 -80 H 1840 M 1764 -156 V -140 M 1764 -124 V -108 M 1764 -52 V -36 M 1764 -20 V -4 M 1856 -80 H 1872 M 1888 -80 H 1904 M 1960 -80 H 1976 M 1992 -80 H 2008 M 1932 -156 V -140 M 1932 -124 V -108 M 1932 -52 V -36 M 1932 -20 V -4 M 2024 -80 H 2040 M 2056 -80 H 2072 M 2128 -80 H 2144 M 2160 -80 H 2176 M 2100 -156 V -140 M 2100 -124 V -108 M 2100 -52 V -36 M 2100 -20 V -4 M -160 80 H -144 M -128 80 H -112 M -56 80 H -40 M -24 80 H -8 M -84 4 V 20 M -84 36 V 52 M -84 108 V 124 M -84 140 V 156 M 8 80 H 24 M 40 80 H 56 M 112 80 H 128 M 144 80 H 160 M 84 4 V 20 M 84 36 V 52 M 84 108 V 124 M 84 140 V 156 M 176 80 H 192 M 208 80 H 224 M 280 80 H 296 M 312 80 H 328 M 252 4 V 20 M 252 36 V 52 M 252 108 V 124 M 252 140 V 156 M 344 80 H 360 M 376 80 H 392 M 448 80 H 464 M 480 80 H 496 M 420 4 V 20 M 420 36 V 52 M 420 108 V 124 M 420 140 V 156 M 512 80 H 528 M 544 80 H 560 M 616 80 H 632 M 648 80 H 664 M 588 4 V 20 M 588 36 V 52 M 588 108 V 124 M 588 140 V 156 M 680 80 H 696 M 712 80 H 728 M 784 80 H 800 M 816 80 H 832 M 756 4 V 20 M 756 36 V 52 M 756 108 V 124 M 756 140 V 156 M 848 80 H 864 M 880 80 H 896 M 952 80 H 968 M 984 80 H 1000 M 924 4 V 20 M 924 36 V 52 M 924 108 V 124 M 924 140 V 156 M 1016 80 H 1032 M 1048 80 H 1064 M 1120 80 H 1136 M 1152 80 H 1168 M 1092 4 V 20 M 1092 36 V 52 M 1092 108 V 124 M 1092 140 V 156 M 1184 80 H 1200 M 1216 80 H 1232 M 1288 80 H 1304 M 1320 80 H 1336 M 1260 4 V 20 M 1260 36 V 52 M 1260 108 V 124 M 1260 140 V 156 M 1352 80 H 1368 M 1384 80 H 1400 M 1456 80 H 1472 M 1488 80 H 1504 M 1428 4 V 20 M 1428 36 V 52 M 1428 108 V 124 M 1428 140 V 156 M 1520 80 H 1536 M 1552 80 H 1568 M 1624 80 H 1640 M 1656 80 H 1672 M 1596 4 V 20 M 1596 36 V 52 M 1596 108 V 124 M 1596 140 V 156 M 1688 80 H 1704 M 1720 80 H 1736 M 1792 80 H 1808 M 1824 80 H 1840 M 1764 4 V 20 M 1764 36 V 52 M 1764 108 V 124 M 1764 140 V 156 M 1856 80 H 1872 M 1888 80 H 1904 M 1960 80 H 1976 M 1992 80 H 2008 M 1932 4 V 20 M 1932 36 V 52 M 1932 108 V 124 M 1932 140 V 156 M 2024 80 H 2040 M 2056 80 H 2072 M 2128 80 H 2144 M 2160 80 H 2176 M 2100 4 V 20 M 2100 36 V 52 M 2100 108 V 124 M 2100 140 V 156 M -160 240 H -144 M -128 240 H -112 M -56 240 H -40 M -24 240 H -8 M -84 164 V 180 M -84 196 V 212 M -84 268 V 284 M -84 300 V 316 M 8 240 H 24 M 40 240 H 56 M 112 240 H 128 M 144 240 H 160 M 84 164 V 180 M 84 196 V 212 M 84 268 V 284 M 84 300 V 316 M 176 240 H 192 M 208 240 H 224 M 280 240 H 296 M 312 240 H 328 M 252 164 V 180 M 252 196 V 212 M 252 268 V 284 M 252 300 V 316 M 344 240 H 360 M 376 240 H 392 M 448 240 H 464 M 480 240 H 496 M 420 164 V 180 M 420 196 V 212 M 420 268 V 284 M 420 300 V 316 M 512 240 H 528 M 544 240 H 560 M 616 240 H 632 M 648 240 H 664 M 588 164 V 180 M 588 196 V 212 M 588 268 V 284 M 588 300 V 316 M 680 240 H 696 M 712 240 H 728 M 784 240 H 800 M 816 240 H 832 M 756 164 V 180 M 756 196 V 212 M 756 268 V 284 M 756 300 V 316 M 848 240 H 864 M 880 240 H 896 M 952 240 H 968 M 984 240 H 1000 M 924 164 V 180 M 924 196 V 212 M 924 268 V 284 M 924 300 V 316 M 1016 240 H 1032 M 1048 240 H 1064 M 1120 240 H 1136 M 1152 240 H 1168 M 1092 164 V 180 M 1092 196 V 212 M 1092 268 V 284 M 1092 300 V 316 M 1184 240 H 1200 M 1216 240 H 1232 M 1288 240 H 1304 M 1320 240 H 1336 M 1260 164 V 180 M 1260 196 V 212 M 1260 268 V 284 M 1260 300 V 316 M 1352 240 H 1368 M 1384 240 H 1400 M 1456 240 H 1472 M 1488 240 H 1504 M 1428 164 V 180 M 1428 196 V 212 M 1428 268 V 284 M 1428 300 V 316 M 1520 240 H 1536 M 1552 240 H 1568 M 1624 240 H 1640 M 1656 240 H 1672 M 1596 164 V 180 M 1596 196 V 212 M 1596 268 V 284 M 1596 300 V 316 M 1688 240 H 1704 M 1720 240 H 1736 M 1792 240 H 1808 M 1824 240 H 1840 M 1764 164 V 180 M 1764 196 V 212 M 1764 268 V 284 M 1764 300 V 316 M 1856 240 H 1872 M 1888 240 H 1904 M 1960 240 H 1976 M 1992 240 H 2008 M 1932 164 V 180 M 1932 196 V 212 M 1932 268 V 284 M 1932 300 V 316 M 2024 240 H 2040 M 2056 240 H 2072 M 2128 240 H 2144 M 2160 240 H 2176 M 2100 164 V 180 M 2100 196 V 212 M 2100 268 V 284 M 2100 300 V 316 M -160 400 H -144 M -128 400 H -112 M -56 400 H -40 M -24 400 H -8 M -84 324 V 340 M -84 356 V 372 M -84 428 V 444 M -84 460 V 476 M 8 400 H 24 M 40 400 H 56 M 112 400 H 128 M 144 400 H 160 M 84 324 V 340 M 84 356 V 372 M 84 428 V 444 M 84 460 V 476 M 176 400 H 192 M 208 400 H 224 M 280 400 H 296 M 312 400 H 328 M 252 324 V 340 M 252 356 V 372 M 252 428 V 444 M 252 460 V 476 M 344 400 H 360 M 376 400 H 392 M 448 400 H 464 M 480 400 H 496 M 420 324 V 340 M 420 356 V 372 M 420 428 V 444 M 420 460 V 476 M 512 400 H 528 M 544 400 H 560 M 616 400 H 632 M 648 400 H 664 M 588 324 V 340 M 588 356 V 372 M 588 428 V 444 M 588 460 V 476 M 680 400 H 696 M 712 400 H 728 M 784 400 H 800 M 816 400 H 832 M 756 324 V 340 M 756 356 V 372 M 756 428 V 444 M 756 460 V 476 M 848 400 H 864 M 880 400 H 896 M 952 400 H 968 M 984 400 H 1000 M 924 324 V 340 M 924 356 V 372 M 924 428 V 444 M 924 460 V 476 M 1016 400 H 1032 M 1048 400 H 1064 M 1120 400 H 1136 M 1152 400 H 1168 M 1092 324 V 340 M 1092 356 V 372 M 1092 428 V 444 M 1092 460 V 476 M 1184 400 H 1200 M 1216 400 H 1232 M 1288 400 H 1304 M 1320 400 H 1336 M 1260 324 V 340 M 1260 356 V 372 M 1260 428 V 444 M 1260 460 V 476 M 1352 400 H 1368 M 1384 400 H 1400 M 1456 400 H 1472 M 1488 400 H 1504 M 1428 324 V 340 M 1428 356 V 372 M 1428 428 V 444 M 1428 460 V 476 M 1520 400 H 1536 M 1552 400 H 1568 M 1624 400 H 1640 M 1656 400 H 1672 M 1596 324 V 340 M 1596 356 V 372 M 1596 428 V 444 M 1596 460 V 476 M 1688 400 H 1704 M 1720 400 H 1736 M 1792 400 H 1808 M 1824 400 H 1840 M 1764 324 V 340 M 1764 356 V 372 M 1764 428 V 444 M 1764 460 V 476 M 1856 400 H 1872 M 1888 400 H 1904 M 1960 400 H 1976 M 1992 400 H 2008 M 1932 324 V 340 M 1932 356 V 372 M 1932 428 V 444 M 1932 460 V 476 M 2024 400 H 2040 M 2056 400 H 2072 M 2128 400 H 2144 M 2160 400 H 2176 M 2100 324 V 340 M 2100 356 V 372 M 2100 428 V 444 M 2100 460 V 476 M -160 560 H -144 M -128 560 H -112 M -56 560 H -40 M -24 560 H -8 M -84 484 V 500 M -84 516 V 532 M -84 588 V 604 M -84 620 V 636 M 8 560 H 24 M 40 560 H 56 M 112 560 H 128 M 144 560 H 160 M 84 484 V 500 M 84 516 V 532 M 84 588 V 604 M 84 620 V 636 M 176 560 H 192 M 208 560 H 224 M 280 560 H 296 M 312 560 H 328 M 252 484 V 500 M 252 516 V 532 M 252 588 V 604 M 252 620 V 636 M 344 560 H 360 M 376 560 H 392 M 448 560 H 464 M 480 560 H 496 M 420 484 V 500 M 420 516 V 532 M 420 588 V 604 M 420 620 V 636 M 512 560 H 528 M 544 560 H 560 M 616 560 H 632 M 648 560 H 664 M 588 484 V 500 M 588 516 V 532 M 588 588 V 604 M 588 620 V 636 M 680 560 H 696 M 712 560 H 728 M 784 560 H 800 M 816 560 H 832 M 756 484 V 500 M 756 516 V 532 M 756 588 V 604 M 756 620 V 636 M 848 560 H 864 M 880 560 H 896 M 952 560 H 968 M 984 560 H 1000 M 924 484 V 500 M 924 516 V 532 M 924 588 V 604 M 924 620 V 636 M 1016 560 H 1032 M 1048 560 H 1064 M 1120 560 H 1136 M 1152 560 H 1168 M 1092 484 V 500 M 1092 516 V 532 M 1092 588 V 604 M 1092 620 V 636 M 1184 560 H 1200 M 1216 560 H 1232 M 1288 560 H 1304 M 1320 560 H 1336 M 1260 484 V 500 M 1260 516 V 532 M 1260 588 V 604 M 1260 620 V 636 M 1352 560 H 1368 M 1384 560 H 1400 M 1456 560 H 1472 M 1488 560 H 1504 M 1428 484 V 500 M 1428 516 V 532 M 1428 588 V 604 M 1428 620 V 636 M 1520 560 H 1536 M 1552 560 H 1568 M 1624 560 H 1640 M 1656 560 H 1672 M 1596 484 V 500 M 1596 516 V 532 M 1596 588 V 604 M 1596 620 V 636 M 1688 560 H 1704 M 1720 560 H 1736 M 1792 560 H 1808 M 1824 560 H 1840 M 1764 484 V 500 M 1764 516 V 532 M 1764 588 V 604 M 1764 620 V 636 M 1856 560 H 1872 M 1888 560 H 1904 M 1960 560 H 1976 M 1992 560 H 2008 M 1932 484 V 500 M 1932 516 V 532 M 1932 588 V 604 M 1932 620 V 636 M 2024 560 H 2040 M 2056 560 H 2072 M 2128 560 H 2144 M 2160 560 H 2176 M 2100 484 V 500 M 2100 516 V 532 M 2100 588 V 604 M 2100 620 V 636 M -160 720 H -144 M -128 720 H -112 M -56 720 H -40 M -24 720 H -8 M -84 644 V 660 M -84 676 V 692 M -84 748 V 764 M -84 780 V 796 M 8 720 H 24 M 40 720 H 56 M 112 720 H 128 M 144 720 H 160 M 84 644 V 660 M 84 676 V 692 M 84 748 V 764 M 84 780 V 796 M 176 720 H 192 M 208 720 H 224 M 280 720 H 296 M 312 720 H 328 M 252 644 V 660 M 252 676 V 692 M 252 748 V 764 M 252 780 V 796 M 344 720 H 360 M 376 720 H 392 M 448 720 H 464 M 480 720 H 496 M 420 644 V 660 M 420 676 V 692 M 420 748 V 764 M 420 780 V 796 M 512 720 H 528 M 544 720 H 560 M 616 720 H 632 M 648 720 H 664 M 588 644 V 660 M 588 676 V 692 M 588 748 V 764 M 588 780 V 796 M 680 720 H 696 M 712 720 H 728 M 784 720 H 800 M 816 720 H 832 M 756 644 V 660 M 756 676 V 692 M 756 748 V 764 M 756 780 V 796 M 848 720 H 864 M 880 720 H 896 M 952 720 H 968 M 984 720 H 1000 M 924 644 V 660 M 924 676 V 692 M 924 748 V 764 M 924 780 V 796 M 1016 720 H 1032 M 1048 720 H 1064 M 1120 720 H 1136 M 1152 720 H 1168 M 1092 644 V 660 M 1092 676 V 692 M 1092 748 V 764 M 1092 780 V 796 M 1184 720 H 1200 M 1216 720 H 1232 M 1288 720 H 1304 M 1320 720 H 1336 M 1260 644 V 660 M 1260 676 V 692 M 1260 748 V 764 M 1260 780 V 796 M 1352 720 H 1368 M 1384 720 H 1400 M 1456 720 H 1472 M 1488 720 H 1504 M 1428 644 V 660 M 1428 676 V 692 M 1428 748 V 764 M 1428 780 V 796 M 1520 720 H 1536 M 1552 720 H 1568 M 1624 720 H 1640 M 1656 720 H 1672 M 1596 644 V 660 M 1596 676 V 692 M 1596 748 V 764 M 1596 780 V 796 M 1688 720 H 1704 M 1720 720 H 1736 M 1792 720 H 1808 M 1824 720 H 1840 M 1764 644 V 660 M 1764 676 V 692 M 1764 748 V 764 M 1764 780 V 796 M 1856 720 H 1872 M 1888 720 H 1904 M 1960 720 H 1976 M 1992 720 H 2008 M 1932 644 V 660 M 1932 676 V 692 M 1932 748 V 764 M 1932 780 V 796 M 2024 720 H 2040 M 2056 720 H 2072 M 2128 720 H 2144 M 2160 720 H 2176 M 2100 644 V 660 M 2100 676 V 692 M 2100 748 V 764 M 2100 780 V 796 M -160 880 H -144 M -128 880 H -112 M -56 880 H -40 M -24 880 H -8 M -84 804 V 820 M -84 836 V 852 M -84 908 V 924 M -84 940 V 956 M 8 880 H 24 M 40 880 H 56 M 112 880 H 128 M 144 880 H 160 M 84 804 V 820 M 84 836 V 852 M 84 908 V 924 M 84 940 V 956 M 176 880 H 192 M 208 880 H 224 M 280 880 H 296 M 312 880 H 328 M 252 804 V 820 M 252 836 V 852 M 252 908 V 924 M 252 940 V 956 M 344 880 H 360 M 376 880 H 392 M 448 880 H 464 M 480 880 H 496 M 420 804 V 820 M 420 836 V 852 M 420 908 V 924 M 420 940 V 956 M 512 880 H 528 M 544 880 H 560 M 616 880 H 632 M 648 880 H 664 M 588 804 V 820 M 588 836 V 852 M 588 908 V 924 M 588 940 V 956 M 680 880 H 696 M 712 880 H 728 M 784 880 H 800 M 816 880 H 832 M 756 804 V 820 M 756 836 V 852 M 756 908 V 924 M 756 940 V 956 M 848 880 H 864 M 880 880 H 896 M 952 880 H 968 M 984 880 H 1000 M 924 804 V 820 M 924 836 V 852 M 924 908 V 924 M 924 940 V 956 M 1016 880 H 1032 M 1048 880 H 1064 M 1120 880 H 1136 M 1152 880 H 1168 M 1092 804 V 820 M 1092 836 V 852 M 1092 908 V 924 M 1092 940 V 956 M 1184 880 H 1200 M 1216 880 H 1232 M 1288 880 H 1304 M 1320 880 H 1336 M 1260 804 V 820 M 1260 836 V 852 M 1260 908 V 924 M 1260 940 V 956 M 1352 880 H 1368 M 1384 880 H 1400 M 1456 880 H 1472 M 1488 880 H 1504 M 1428 804 V 820 M 1428 836 V 852 M 1428 908 V 924 M 1428 940 V 956 M 1520 880 H 1536 M 1552 880 H 1568 M 1624 880 H 1640 M 1656 880 H 1672 M 1596 804 V 820 M 1596 836 V 852 M 1596 908 V 924 M 1596 940 V 956 M 1688 880 H 1704 M 1720 880 H 1736 M 1792 880 H 1808 M 1824 880 H 1840 M 1764 804 V 820 M 1764 836 V 852 M 1764 908 V 924 M 1764 940 V 956 M 1856 880 H 1872 M 1888 880 H 1904 M 1960 880 H 1976 M 1992 880 H 2008 M 1932 804 V 820 M 1932 836 V 852 M 1932 908 V 924 M 1932 940 V 956 M 2024 880 H 2040 M 2056 880 H 2072 M 2128 880 H 2144 M 2160 880 H 2176 M 2100 804 V 820 M 2100 836 V 852 M 2100 908 V 924 M 2100 940 V 956 M -160 1040 H -144 M -128 1040 H -112 M -56 1040 H -40 M -24 1040 H -8 M -84 964 V 980 M -84 996 V 1012 M -84 1068 V 1084 M -84 1100 V 1116 M 8 1040 H 24 M 40 1040 H 56 M 112 1040 H 128 M 144 1040 H 160 M 84 964 V 980 M 84 996 V 1012 M 84 1068 V 1084 M 84 1100 V 1116 M 176 1040 H 192 M 208 1040 H 224 M 280 1040 H 296 M 312 1040 H 328 M 252 964 V 980 M 252 996 V 1012 M 252 1068 V 1084 M 252 1100 V 1116 M 344 1040 H 360 M 376 1040 H 392 M 448 1040 H 464 M 480 1040 H 496 M 420 964 V 980 M 420 996 V 1012 M 420 1068 V 1084 M 420 1100 V 1116 M 512 1040 H 528 M 544 1040 H 560 M 616 1040 H 632 M 648 1040 H 664 M 588 964 V 980 M 588 996 V 1012 M 588 1068 V 1084 M 588 1100 V 1116 M 680 1040 H 696 M 712 1040 H 728 M 784 1040 H 800 M 816 1040 H 832 M 756 964 V 980 M 756 996 V 1012 M 756 1068 V 1084 M 756 1100 V 1116 M 848 1040 H 864 M 880 1040 H 896 M 952 1040 H 968 M 984 1040 H 1000 M 924 964 V 980 M 924 996 V 1012 M 924 1068 V 1084 M 924 1100 V 1116 M 1016 1040 H 1032 M 1048 1040 H 1064 M 1120 1040 H 1136 M 1152 1040 H 1168 M 1092 964 V 980 M 1092 996 V 1012 M 1092 1068 V 1084 M 1092 1100 V 1116 M 1184 1040 H 1200 M 1216 1040 H 1232 M 1288 1040 H 1304 M 1320 1040 H 1336 M 1260 964 V 980 M 1260 996 V 1012 M 1260 1068 V 1084 M 1260 1100 V 1116 M 1352 1040 H 1368 M 1384 1040 H 1400 M 1456 1040 H 1472 M 1488 1040 H 1504 M 1428 964 V 980 M 1428 996 V 1012 M 1428 1068 V 1084 M 1428 1100 V 1116 M 1520 1040 H 1536 M 1552 1040 H 1568 M 1624 1040 H 1640 M 1656 1040 H 1672 M 1596 964 V 980 M 1596 996 V 1012 M 1596 1068 V 1084 M 1596 1100 V 1116 M 1688 1040 H 1704 M 1720 1040 H 1736 M 1792 1040 H 1808 M 1824 1040 H 1840 M 1764 964 V 980 M 1764 996 V 1012 M 1764 1068 V 1084 M 1764 1100 V 1116 M 1856 1040 H 1872 M 1888 1040 H 1904 M 1960 1040 H 1976 M 1992 1040 H 2008 M 1932 964 V 980 M 1932 996 V 1012 M 1932 1068 V 1084 M 1932 1100 V 1116 M 2024 1040 H 2040 M 2056 1040 H 2072 M 2128 1040 H 2144 M 2160 1040 H 2176 M 2100 964 V 980 M 2100 996 V 1012 M 2100 1068 V 1084 M 2100 1100 V 1116 M -160 1200 H -144 M -128 1200 H -112 M -56 1200 H -40 M -24 1200 H -8 M -84 1124 V 1140 M -84 1156 V 1172 M -84 1228 V 1244 M -84 1260 V 1276 M 8 1200 H 24 M 40 1200 H 56 M 112 1200 H 128 M 144 1200 H 160 M 84 1124 V 1140 M 84 1156 V 1172 M 84 1228 V 1244 M 84 1260 V 1276 M 176 1200 H 192 M 208 1200 H 224 M 280 1200 H 296 M 312 1200 H 328 M 252 1124 V 1140 M 252 1156 V 1172 M 252 1228 V 1244 M 252 1260 V 1276 M 344 1200 H 360 M 376 1200 H 392 M 448 1200 H 464 M 480 1200 H 496 M 420 1124 V 1140 M 420 1156 V 1172 M 420 1228 V 1244 M 420 1260 V 1276 M 512 1200 H 528 M 544 1200 H 560 M 616 1200 H 632 M 648 1200 H 664 M 588 1124 V 1140 M 588 1156 V 1172 M 588 1228 V 1244 M 588 1260 V 1276 M 680 1200 H 696 M 712 1200 H 728 M 784 1200 H 800 M 816 1200 H 832 M 756 1124 V 1140 M 756 1156 V 1172 M 756 1228 V 1244 M 756 1260 V 1276 M 848 1200 H 864 M 880 1200 H 896 M 952 1200 H 968 M 984 1200 H 1000 M 924 1124 V 1140 M 924 1156 V 1172 M 924 1228 V 1244 M 924 1260 V 1276 M 1016 1200 H 1032 M 1048 1200 H 1064 M 1120 1200 H 1136 M 1152 1200 H 1168 M 1092 1124 V 1140 M 1092 1156 V 1172 M 1092 1228 V 1244 M 1092 1260 V 1276 M 1184 1200 H 1200 M 1216 1200 H 1232 M 1288 1200 H 1304 M 1320 1200 H 1336 M 1260 1124 V 1140 M 1260 1156 V 1172 M 1260 1228 V 1244 M 1260 1260 V 1276 M 1352 1200 H 1368 M 1384 1200 H 1400 M 1456 1200 H 1472 M 1488 1200 H 1504 M 1428 1124 V 1140 M 1428 1156 V 1172 M 1428 1228 V 1244 M 1428 1260 V 1276 M 1520 1200 H 1536 M 1552 1200 H 1568 M 1624 1200 H 1640 M 1656 1200 H 1672 M 1596 1124 V 1140 M 1596 1156 V 1172 M 1596 1228 V 1244 M 1596 1260 V 1276 M 1688 1200 H 1704 M 1720 1200 H 1736 M 1792 1200 H 1808 M 1824 1200 H 1840 M 1764 1124 V 1140 M 1764 1156 V 1172 M 1764 1228 V 1244 M 1764 1260 V 1276 M 1856 1200 H 1872 M 1888 1200 H 1904 M 1960 1200 H 1976 M 1992 1200 H 2008 M 1932 1124 V 1140 M 1932 1156 V 1172 M 1932 1228 V 1244 M 1932 1260 V 1276 M 2024 1200 H 2040 M 2056 1200 H 2072 M 2128 1200 H 2144 M 2160 1200 H 2176 M 2100 1124 V 1140 M 2100 1156 V 1172 M 2100 1228 V 1244 M 2100 1260 V 1276" stroke-width="3.2"/>
    <path d="M -96 -80 H -72 M -84 -92 V -68 M 72 -80 H 96 M 84 -92 V -68 M 240 -80 H 264 M 252 -92 V -68 M 408 -80 H 432 M 420 -92 V -68 M 576 -80 H 600 M 588 -92 V -68 M 744 -80 H 768 M 756 -92 V -68 M 912 -80 H 936 M 924 -92 V -68 M 1080 -80 H 1104 M 1092 -92 V -68 M 1248 -80 H 1272 M 1260 -92 V -68 M 1416 -80 H 1440 M 1428 -92 V -68 M 1584 -80 H 1608 M 1596 -92 V -68 M 1752 -80 H 1776 M 1764 -92 V -68 M 1920 -80 H 1944 M 1932 -92 V -68 M 2088 -80 H 2112 M 2100 -92 V -68 M -96 80 H -72 M -84 68 V 92 M 72 80 H 96 M 84 68 V 92 M 240 80 H 264 M 252 68 V 92 M 408 80 H 432 M 420 68 V 92 M 576 80 H 600 M 588 68 V 92 M 744 80 H 768 M 756 68 V 92 M 912 80 H 936 M 924 68 V 92 M 1080 80 H 1104 M 1092 68 V 92 M 1248 80 H 1272 M 1260 68 V 92 M 1416 80 H 1440 M 1428 68 V 92 M 1584 80 H 1608 M 1596 68 V 92 M 1752 80 H 1776 M 1764 68 V 92 M 1920 80 H 1944 M 1932 68 V 92 M 2088 80 H 2112 M 2100 68 V 92 M -96 240 H -72 M -84 228 V 252 M 72 240 H 96 M 84 228 V 252 M 240 240 H 264 M 252 228 V 252 M 408 240 H 432 M 420 228 V 252 M 576 240 H 600 M 588 228 V 252 M 744 240 H 768 M 756 228 V 252 M 912 240 H 936 M 924 228 V 252 M 1080 240 H 1104 M 1092 228 V 252 M 1248 240 H 1272 M 1260 228 V 252 M 1416 240 H 1440 M 1428 228 V 252 M 1584 240 H 1608 M 1596 228 V 252 M 1752 240 H 1776 M 1764 228 V 252 M 1920 240 H 1944 M 1932 228 V 252 M 2088 240 H 2112 M 2100 228 V 252 M -96 400 H -72 M -84 388 V 412 M 72 400 H 96 M 84 388 V 412 M 240 400 H 264 M 252 388 V 412 M 408 400 H 432 M 420 388 V 412 M 576 400 H 600 M 588 388 V 412 M 744 400 H 768 M 756 388 V 412 M 912 400 H 936 M 924 388 V 412 M 1080 400 H 1104 M 1092 388 V 412 M 1248 400 H 1272 M 1260 388 V 412 M 1416 400 H 1440 M 1428 388 V 412 M 1584 400 H 1608 M 1596 388 V 412 M 1752 400 H 1776 M 1764 388 V 412 M 1920 400 H 1944 M 1932 388 V 412 M 2088 400 H 2112 M 2100 388 V 412 M -96 560 H -72 M -84 548 V 572 M 72 560 H 96 M 84 548 V 572 M 240 560 H 264 M 252 548 V 572 M 408 560 H 432 M 420 548 V 572 M 576 560 H 600 M 588 548 V 572 M 744 560 H 768 M 756 548 V 572 M 912 560 H 936 M 924 548 V 572 M 1080 560 H 1104 M 1092 548 V 572 M 1248 560 H 1272 M 1260 548 V 572 M 1416 560 H 1440 M 1428 548 V 572 M 1584 560 H 1608 M 1596 548 V 572 M 1752 560 H 1776 M 1764 548 V 572 M 1920 560 H 1944 M 1932 548 V 572 M 2088 560 H 2112 M 2100 548 V 572 M -96 720 H -72 M -84 708 V 732 M 72 720 H 96 M 84 708 V 732 M 240 720 H 264 M 252 708 V 732 M 408 720 H 432 M 420 708 V 732 M 576 720 H 600 M 588 708 V 732 M 744 720 H 768 M 756 708 V 732 M 912 720 H 936 M 924 708 V 732 M 1080 720 H 1104 M 1092 708 V 732 M 1248 720 H 1272 M 1260 708 V 732 M 1416 720 H 1440 M 1428 708 V 732 M 1584 720 H 1608 M 1596 708 V 732 M 1752 720 H 1776 M 1764 708 V 732 M 1920 720 H 1944 M 1932 708 V 732 M 2088 720 H 2112 M 2100 708 V 732 M -96 880 H -72 M -84 868 V 892 M 72 880 H 96 M 84 868 V 892 M 240 880 H 264 M 252 868 V 892 M 408 880 H 432 M 420 868 V 892 M 576 880 H 600 M 588 868 V 892 M 744 880 H 768 M 756 868 V 892 M 912 880 H 936 M 924 868 V 892 M 1080 880 H 1104 M 1092 868 V 892 M 1248 880 H 1272 M 1260 868 V 892 M 1416 880 H 1440 M 1428 868 V 892 M 1584 880 H 1608 M 1596 868 V 892 M 1752 880 H 1776 M 1764 868 V 892 M 1920 880 H 1944 M 1932 868 V 892 M 2088 880 H 2112 M 2100 868 V 892 M -96 1040 H -72 M -84 1028 V 1052 M 72 1040 H 96 M 84 1028 V 1052 M 240 1040 H 264 M 252 1028 V 1052 M 408 1040 H 432 M 420 1028 V 1052 M 576 1040 H 600 M 588 1028 V 1052 M 744 1040 H 768 M 756 1028 V 1052 M 912 1040 H 936 M 924 1028 V 1052 M 1080 1040 H 1104 M 1092 1028 V 1052 M 1248 1040 H 1272 M 1260 1028 V 1052 M 1416 1040 H 1440 M 1428 1028 V 1052 M 1584 1040 H 1608 M 1596 1028 V 1052 M 1752 1040 H 1776 M 1764 1028 V 1052 M 1920 1040 H 1944 M 1932 1028 V 1052 M 2088 1040 H 2112 M 2100 1028 V 1052 M -96 1200 H -72 M -84 1188 V 1212 M 72 1200 H 96 M 84 1188 V 1212 M 240 1200 H 264 M 252 1188 V 1212 M 408 1200 H 432 M 420 1188 V 1212 M 576 1200 H 600 M 588 1188 V 1212 M 744 1200 H 768 M 756 1188 V 1212 M 912 1200 H 936 M 924 1188 V 1212 M 1080 1200 H 1104 M 1092 1188 V 1212 M 1248 1200 H 1272 M 1260 1188 V 1212 M 1416 1200 H 1440 M 1428 1188 V 1212 M 1584 1200 H 1608 M 1596 1188 V 1212 M 1752 1200 H 1776 M 1764 1188 V 1212 M 1920 1200 H 1944 M 1932 1188 V 1212 M 2088 1200 H 2112 M 2100 1188 V 1212" stroke-width="6.4"/>
  </g>
</svg>
