<?xml version="1.0" encoding="UTF-8" standalone="no"?>
<!DOCTYPE svg PUBLIC "-//W3C//DTD SVG 1.1//EN" "http://www.w3.org/Graphics/SVG/1.1/DTD/svg11.dtd">
<svg width="100%" height="100%" viewBox="0 0 589 589" version="1.1" xmlns="http://www.w3.org/2000/svg" xmlns:xlink="http://www.w3.org/1999/xlink" xml:space="preserve" xmlns:serif="http://www.serif.com/" style="fill-rule:evenodd;clip-rule:evenodd;stroke-linecap:round;stroke-linejoin:round;">
    <g transform="matrix(2,0,0,2,-104,-109)">
        <path d="M169.577,182.606C175.485,172.427 184.636,168.234 194.381,167.352C221.576,164.893 257.877,205.592 224.147,228.369C186.897,253.522 142.674,220.259 168.159,187.991" style="fill:none;fill-rule:nonzero;stroke:black;stroke-opacity:0.9;stroke-width:16px;"/>
    </g>
    <g transform="matrix(2,0,0,2,-104,-109)">
        <path d="M246.047,134.751C254.413,125.339 270.477,105.511 274.75,100.665" style="fill:none;fill-rule:nonzero;stroke:black;stroke-opacity:0.9;stroke-width:16px;"/>
    </g>
    <g transform="matrix(2,0,0,2,-104,-109)">
        <path d="M184.513,126.116C185.606,112.638 180.602,88.288 178.762,80.931" style="fill:none;fill-rule:nonzero;stroke:black;stroke-opacity:0.9;stroke-width:16px;"/>
    </g>
    <g transform="matrix(2,0,0,2,-104,-109)">
        <path d="M132.755,148.297C121.564,142.059 115.596,129.006 103.18,126.938" style="fill:none;fill-rule:nonzero;stroke:black;stroke-opacity:0.9;stroke-width:16px;"/>
    </g>
    <g transform="matrix(2,0,0,2,-104,-109)">
        <path d="M107.291,212.378C98.36,211.829 89.505,212.32 81.002,214.021" style="fill:none;fill-rule:nonzero;stroke:black;stroke-opacity:0.9;stroke-width:16px;"/>
    </g>
    <g transform="matrix(2,0,0,2,-104,-109)">
        <path d="M149.19,264.133C140.765,271.698 132.463,280.188 126.188,289.602" style="fill:none;fill-rule:nonzero;stroke:black;stroke-opacity:0.9;stroke-width:16px;"/>
    </g>
    <g transform="matrix(2,0,0,2,-104,-109)">
        <path d="M207.518,281.386C212.284,292.444 211.626,306.408 211.626,319.11" style="fill:none;fill-rule:nonzero;stroke:black;stroke-opacity:0.9;stroke-width:16px;"/>
    </g>
    <g transform="matrix(2,0,0,2,-104,-109)">
        <path d="M265.846,256.74C270.734,263.03 281.972,277.145 283.92,279.743" style="fill:none;fill-rule:nonzero;stroke:black;stroke-opacity:0.9;stroke-width:16px;"/>
    </g>
    <g transform="matrix(2,0,0,2,-104,-109)">
        <path d="M289.67,186.089C296.082,186.397 324.139,171.961 316.78,181.159" style="fill:none;fill-rule:nonzero;stroke:black;stroke-opacity:0.9;stroke-width:16px;"/>
    </g>
    <g transform="matrix(1.099174,0,0,1.024793,-40.297521,-19.123967)">
        <circle cx="305.5" cy="307.5" r="60.5" style="fill:rgb(23,23,23);"/>
    </g>
</svg>
